<svg xmlns="http://www.w3.org/2000/svg" width="24" height="24" viewBox="0 0 24 24" fill="none">
  <g clip-path="url(#clip0_204_289389)">
    <path opacity="0.32" fill-rule="evenodd" clip-rule="evenodd" d="M5.79885 5.09879C6.2026 4.85583 6.4444 5.21739 6.1241 5.56299C4.90418 6.87954 3.1574 8.86494 2.49633 10.7491H8.52235C9.84105 9.27184 11.9675 7.34709 14.9392 6.04284C15.6741 5.72034 16.5304 6.18039 16.6199 7.01004C16.6674 7.45009 16.7196 8.11969 16.7405 9.04854C17.9624 7.98004 19.5254 6.88284 21.4393 6.04284C22.1741 5.72034 23.0304 6.18044 23.1199 7.01004C23.1811 7.57649 23.25 8.52324 23.25 9.91374V16.9991C23.25 18.4007 23.1782 19.5086 23.0872 20.3502C22.9123 21.968 21.5709 23.0342 20.0392 23.1014C18.4234 23.1722 15.7964 23.2491 12 23.2491C8.2036 23.2491 5.5766 23.1722 3.96082 23.1014C2.42908 23.0342 1.08771 21.968 0.912745 20.3502C0.821725 19.5086 0.75 18.4007 0.75 16.9991V11.4991C0.75 11.3726 0.781295 11.2535 0.836565 11.149C1.39157 8.55099 4.02995 6.16314 5.79885 5.09879Z" fill="#1877F2"/>
    <path d="M9.98675 0.953974C10.2641 1.01901 10.4807 1.23559 10.5457 1.51298L10.5463 1.51562L10.5473 1.51969L10.5501 1.53207C10.5524 1.54218 10.5553 1.556 10.559 1.57335C10.5663 1.60803 10.5763 1.65689 10.5877 1.71855C10.6106 1.84177 10.6398 2.01668 10.6671 2.23221C10.7215 2.66186 10.7693 3.26052 10.7416 3.93747C10.6871 5.27115 10.3338 7.02525 9.0253 8.33375C7.3096 10.0495 4.55834 10.2841 2.88697 8.61275C1.2156 6.9414 1.45023 4.19014 3.16596 2.47441C4.47446 1.16591 6.22855 0.812644 7.56225 0.758109C8.2392 0.730424 8.83785 0.778179 9.2675 0.832589C9.48305 0.859884 9.65795 0.889099 9.78115 0.911999C9.84285 0.923454 9.8917 0.933354 9.92635 0.940684C9.9437 0.944349 9.95755 0.947374 9.96765 0.949629L9.98005 0.952424L9.9841 0.953359L9.9856 0.953709L9.98675 0.953974Z" fill="#1877F2"/>
    <path fill-rule="evenodd" clip-rule="evenodd" d="M12.75 16C12.75 15.5858 13.0858 15.25 13.5 15.25H18.5C18.9142 15.25 19.25 15.5858 19.25 16C19.25 16.4142 18.9142 16.75 18.5 16.75H13.5C13.0858 16.75 12.75 16.4142 12.75 16Z" fill="#1877F2"/>
    <path fill-rule="evenodd" clip-rule="evenodd" d="M12.75 19.5C12.75 19.0858 13.0858 18.75 13.5 18.75H18.5C18.9142 18.75 19.25 19.0858 19.25 19.5C19.25 19.9142 18.9142 20.25 18.5 20.25H13.5C13.0858 20.25 12.75 19.9142 12.75 19.5Z" fill="#1877F2"/>
    <path d="M9.699 23.2394C9.69995 23.2136 9.70095 23.1872 9.7019 23.1602C9.72605 22.4866 9.75 20.9527 9.75 19.5C9.75 17.8439 9.7189 16.8906 9.69135 16.3704C9.6637 15.8484 9.38925 15.187 8.6715 14.962C8.29185 14.843 7.75455 14.75 7 14.75C6.24545 14.75 5.70815 14.843 5.3285 14.962C4.61075 15.187 4.33629 15.8484 4.30865 16.3704C4.28111 16.8906 4.25 17.8439 4.25 19.5C4.25 20.9211 4.27291 22.4415 4.29653 23.1158C5.5523 23.1669 7.3337 23.2183 9.699 23.2394Z" fill="#1877F2"/>
  </g>
  <defs>
    <clipPath id="clip0_204_289389">
      <rect width="24" height="24" fill="white"/>
    </clipPath>
  </defs>
</svg>
