<svg xmlns="http://www.w3.org/2000/svg" width="24" height="24" viewBox="0 0 24 24" fill="none">
  <g clip-path="url(#clip0_204_289407)">
    <path opacity="0.32" d="M6.9165 22.024C8.65185 22.67 10.5814 23.25 12 23.25C13.4186 23.25 15.3482 22.67 17.0835 22.024C18.8501 21.3664 20.5304 20.5953 21.4935 20.1346C22.2351 19.7799 22.78 19.0903 22.8986 18.243C23.0505 17.1566 23.25 15.1337 23.25 12C23.25 8.86625 23.0505 6.8434 22.8986 5.75705C22.78 4.90972 22.2351 4.22015 21.4935 3.86537C20.5304 3.40469 18.8501 2.63357 17.0835 1.97601C15.3482 1.33006 13.4186 0.75 12 0.75C10.5814 0.75 8.65185 1.33006 6.9165 1.976C5.1499 2.63357 3.46956 3.40469 2.50652 3.86537C1.76485 4.22015 1.21998 4.90972 1.10145 5.75705C0.949495 6.8434 0.75 8.86625 0.75 12C0.75 15.1337 0.949495 17.1566 1.10145 18.243C1.21998 19.0903 1.76485 19.7799 2.50651 20.1346C3.46956 20.5953 5.1499 21.3664 6.9165 22.024Z" fill="#1877F2"/>
    <path d="M22.3367 5.6099C22.5458 5.5065 22.6752 5.3296 22.7251 5.1352C22.5157 4.64696 22.1524 4.24404 21.6975 3.97448C20.6602 3.47169 19.6131 2.99139 18.5438 2.55017C18.0732 2.35609 17.5817 2.16153 17.0833 1.97601C15.3479 1.33006 13.4183 0.75 11.9998 0.75C10.5812 0.75 8.6516 1.33006 6.91625 1.976C6.41885 2.16115 5.9283 2.3553 5.45865 2.54899C4.3884 2.99053 3.34026 3.47122 2.302 3.97447C1.84712 4.24404 1.48382 4.64696 1.27441 5.1352C1.32434 5.3296 1.45383 5.5065 1.66289 5.6099C2.92454 6.234 4.1972 6.8296 5.50295 7.3667L5.62875 7.41845C7.38403 8.14081 9.32327 8.93884 11.25 9.11279V23.2039C11.512 23.2338 11.7632 23.25 12 23.25C12.2368 23.25 12.488 23.2338 12.75 23.2039V9.11275C14.6766 8.93873 16.6156 8.14076 18.3708 7.41845L18.4966 7.3667C19.8023 6.82965 21.075 6.234 22.3367 5.6099Z" fill="#1877F2"/>
  </g>
  <defs>
    <clipPath id="clip0_204_289407">
      <rect width="24" height="24" fill="white"/>
    </clipPath>
  </defs>
</svg>
